<svg xmlns="http://www.w3.org/2000/svg" viewBox="0 0 315.5 315.4"><defs><style>.cls-1{fill:none;}.cls-2{fill:#fff;}</style></defs><g id="Layer_2" data-name="Layer 2"><g id="Layer_1-2" data-name="Layer 1"><path class="cls-1" d="M265,315.4H50.5A50.47,50.47,0,0,1,0,265V50.4A50.47,50.47,0,0,1,50.5,0H265a50.49,50.49,0,0,1,50.5,50.5V265A50.47,50.47,0,0,1,265,315.4Z"/><path class="cls-2" d="M280,186.3c-6.1-.1-7.7-3-7.7-6.6.1-4.6,9.7-41.4,10.8-48.3a37.13,37.13,0,0,0,.5-4.8c.2-14.3-12.1-26.7-23.7-26.9-10.3-.2-21.1,6-30.7,13-4.5-8-12.6-13.7-20.3-13.8-9-.2-18.8,4.7-27.3,10.7l2.5-11.1L153.8,98l-16.5,71.8c-7,9.3-16.2,15.6-26.2,20.5l21.3-92.7L102,97.1l-2.5,10A18.43,18.43,0,0,0,83.1,97c-40.7-.7-52.6,47.2-53.1,76.2-.2,12.4,5.4,29.5,25.6,29.8,9.7.2,17.9-4.1,24.3-9.7l-2.2,9.4c-19,6.6-34.4,13.3-34.7,30.5-.2,13.7,10.4,20.5,23.2,20.8,13.9.2,31.6-5.2,38.4-35.1l3.9-16.7c9.2-3.2,17.9-7,24.3-12l-2.9,12.4,30.3.5,19.5-84.6c4.3-2.9,7.9-4.3,12.9-4.2,5.6.1,9.6,5,9.4,12.5a21.83,21.83,0,0,1-.7,5.5L185,203.4l30.4.5,16.8-73.5a32.93,32.93,0,0,0,.5-4.4,40.35,40.35,0,0,0-.9-7.6c3.9-2.3,7.2-3.5,11.8-3.4,5.6.1,9.6,5,9.4,12.5a21.83,21.83,0,0,1-.7,5.5l-8.6,37.6a54.27,54.27,0,0,0-1.4,10.7c-.2,15.7,7.4,23,21.1,23.2,7.2.1,16-1,22.2-19A14.33,14.33,0,0,1,280,186.3ZM74.2,219.1c-2.8,12.3-8.3,18.5-12.5,18.5a7.18,7.18,0,0,1-7-7c.1-8.2,8.9-13.3,20.9-17.7ZM84,175.9c-4,4.2-8.5,7.2-12.7,7.2-9.3-.2-15.3-3.4-15.1-13.5.3-18.1,9-61.2,29.3-60.9,3.6.1,8.6,2.9,11.8,9.2Z"/></g></g></svg>